<svg xmlns="http://www.w3.org/2000/svg" width="1920" height="1525" viewBox="0 0 1920 1525" fill="none">
<path fill-rule="evenodd" clip-rule="evenodd" d="M0 23.3152L80 51.9294C160 80.5435 320 137.772 480 128.234C640 118.696 800 42.3913 960 13.7772C1120 -14.837 1280 4.23913 1440 42.3913C1600 80.5435 1760 137.772 1840 166.386L1920 195H1840C1760 195 1600 195 1440 195C1280 195 1120 195 960 195C800 195 640 195 480 195C320 195 160 195 80 195H0V23.3152Z" fill="#F2F2F2"/>
<path d="M1930 187V705.373C1929.61 705.459 1924.46 700.332 1918.97 694.906C1915.77 691.022 1912.23 687.522 1908.42 684.419C1904.6 681.315 1900.51 678.597 1896.23 676.285C1879.9 668.729 1862.32 666.899 1845.77 669.81C1842.46 670.388 1839.2 671.169 1835.99 672.122C1832.3 673.171 1828.9 674.508 1825.74 676.082C1822.58 677.655 1819.67 679.485 1816.98 681.508C1805.8 689.727 1797.15 699.69 1790.29 710.756C1788 714.448 1785.91 718.258 1784 722.164C1771.48 749.872 1763.28 778.907 1757.2 808.144C1756.33 812.318 1755.51 816.503 1754.71 820.687C1754.09 824.957 1753.33 829.227 1752.5 833.508C1751.66 837.789 1750.77 842.081 1749.9 846.383C1741.94 878.018 1743.45 912.757 1750.47 945.002C1751 948.619 1751.59 952.236 1752.24 955.843C1754.65 975.074 1761.9 994.884 1765.9 1014.61C1766.7 1018.56 1767.37 1022.49 1767.85 1026.42C1772.18 1044.15 1767.65 1062.26 1757.07 1077.36C1746.49 1090.96 1723.84 1092.46 1710.24 1080.38C1683.04 1053.2 1698.15 1016.95 1704.47 984.845C1705.06 981.891 1705.62 978.938 1706.18 975.995C1706.86 972.506 1707.47 969.006 1708 965.496C1719.31 923.33 1701.17 870.473 1654.21 860.231C1649.63 859.321 1644.84 858.861 1639.92 858.915C1636.03 858.808 1632.18 859.011 1628.39 859.568C1613.26 861.772 1599.38 869.467 1589.95 883.904C1587.61 886.826 1585.42 889.897 1583.43 893.108C1575.47 905.918 1570.64 920.697 1570.23 936.055C1569.7 940.229 1569.33 944.456 1569.11 948.694C1568.44 961.408 1569.16 974.229 1570.98 986.665C1571.57 991.224 1572.31 995.793 1573.16 1000.35C1574.02 1004.91 1575.01 1009.46 1576.09 1014C1576.55 1016.69 1577.03 1019.4 1577.51 1022.12C1579.91 1035.71 1582.15 1049.51 1578.78 1063.77C1577.94 1067.17 1576.79 1070.24 1575.4 1072.98C1571.24 1081.21 1564.83 1086.56 1557.39 1089.31C1554.09 1090.53 1550.58 1091.23 1546.98 1091.46C1542.52 1090.96 1536.48 1092.5 1531.95 1091.2C1510.8 1084.92 1486.63 1069.82 1463.97 1084.92C1447.35 1097 1451.88 1116.63 1457.93 1132.14C1460 1135.67 1461.98 1139.59 1463.78 1143.76C1476.31 1172.97 1479.45 1214.42 1439.79 1222.34C1425.69 1225.36 1411.59 1220.33 1402.87 1210.82C1400.68 1208.44 1398.84 1205.79 1397.41 1202.9C1394.47 1193.64 1391.45 1184.58 1392.4 1175.61C1392.49 1172.63 1392.83 1169.68 1393.42 1166.76C1394.01 1163.84 1394.87 1160.95 1396.01 1158.1C1397.02 1154.38 1398.17 1150.64 1399.31 1146.91C1400.46 1143.17 1401.6 1139.42 1402.6 1135.7C1403.59 1131.98 1404.43 1128.25 1404.97 1124.57C1405.5 1120.88 1405.73 1117.22 1405.5 1113.59C1405.28 1109.97 1404.6 1106.39 1403.32 1102.87C1402.03 1099.35 1400.15 1095.88 1397.5 1092.48C1389.94 1084.92 1380.89 1083.41 1370.31 1084.92C1349.54 1089.64 1338.2 1105.56 1332.21 1123.83C1331.02 1127.48 1330.03 1131.24 1329.13 1134.96C1315.91 1177.03 1318.94 1222.34 1330.03 1263.96C1330.82 1267.46 1331.69 1270.95 1332.63 1274.43C1336.38 1288.34 1341.12 1302.07 1345.73 1315.76C1347.11 1319.87 1348.47 1323.98 1349.79 1328.11C1353.52 1339.41 1357.13 1350.94 1359.77 1362.6C1360.66 1366.5 1361.43 1370.41 1362.08 1374.32C1362.77 1379.24 1363.4 1384.53 1363.82 1390.03C1363.93 1393.04 1364.01 1396.13 1363.99 1399.29C1365.18 1414.22 1360.2 1427.92 1350.93 1438.52C1348.62 1441.18 1346.03 1443.64 1343.2 1445.88C1329.51 1457.93 1309.87 1460.95 1291.73 1456.42C1260.01 1451.89 1246.41 1418.66 1248.15 1390.14C1248.07 1386.16 1248.14 1382.18 1248.36 1378.18C1249.5 1358.15 1254.75 1337.17 1261.39 1319.18C1262.9 1315.08 1264.49 1311.13 1266.11 1307.39C1267.43 1302.99 1268.66 1298.57 1269.84 1294.14C1274.37 1279.31 1277.8 1263.9 1279.83 1248.22C1280.33 1244.3 1280.75 1240.37 1281.07 1236.42C1281.16 1211.77 1282.67 1187.61 1275.11 1164.92C1274.15 1161.98 1273.02 1159.12 1271.69 1156.36C1267.72 1148.07 1262.03 1140.69 1253.96 1134.75C1234.33 1119.65 1208.64 1131.73 1198.06 1152.87C1188.99 1172.49 1195.04 1192.13 1199.68 1211.47C1201.02 1215.84 1202.55 1220.32 1204.1 1224.87C1208.64 1238.95 1213.17 1252.55 1213.28 1265.72C1213.23 1268.99 1212.89 1272.19 1212.16 1275.31C1209.99 1284.64 1204.39 1293.16 1193.27 1300.19C1189.43 1302.2 1185.33 1303.53 1181.17 1304.17C1177 1304.81 1172.76 1304.77 1168.62 1304.11C1132.12 1296.55 1133.76 1263.21 1142.32 1232.18C1143.55 1227.75 1144.92 1223.36 1146.33 1219.1C1148.97 1212.12 1151.58 1205.12 1153.87 1198.06C1155.01 1194.53 1156.08 1190.98 1157.02 1187.4C1164.84 1158.9 1164.84 1127.19 1143.68 1104.54C1128.58 1087.93 1104.21 1081.79 1082.94 1078.74C1078.09 1078.15 1105.14 1136.6 1077.38 1136.6C1055.18 1136.6 1075 1093 1069.45 1077.94C1067.23 1072.39 1066.28 1068.93 1056.76 1066.85C1048.04 1064.93 1040.11 1070.87 1033.76 1073.71V187H1930Z" fill="#F2F2F2"/>
<path d="M-10 187V1255.82C-9.22695 1261.09 -9.22695 1264.61 -9.22695 1269.88C-5.92276 1267.24 -2.63104 1264.36 0.673145 1261.34C3.97733 1258.33 7.29399 1255.17 10.6231 1251.99C15.7727 1246.35 21.9571 1241.02 28.7276 1236.56C32.119 1234.33 35.6476 1232.31 39.2885 1230.58C55.8718 1218.87 80.5098 1220.63 92.8163 1234.7C98.9758 1242.4 103.452 1250.6 106.644 1259.14C108.24 1263.41 109.524 1267.76 110.584 1272.19C117.542 1295.66 118.377 1319.71 114.711 1343.42C113.976 1348.16 113.065 1352.9 111.981 1357.6C103.377 1400.04 76.9936 1442.27 92.5046 1487.11C94.0382 1491.52 95.9085 1495.91 98.103 1500.31C100.447 1504.41 103.427 1508.02 106.881 1511.14C126.257 1528.46 157.927 1530.21 177.279 1512.62C192.229 1498.55 198.837 1479.64 199.797 1459.81C200.034 1454.84 199.922 1449.83 199.436 1444.91C191.356 1405.33 164.96 1370.14 158.177 1327.35C157.341 1323.2 156.606 1319.03 155.995 1314.79C154.773 1306.3 154.075 1297.55 153.913 1288.51C153.888 1283.46 154.1 1278.39 154.561 1273.32C154.76 1269.43 155.06 1265.57 155.509 1261.69C155.957 1257.83 156.568 1253.95 157.354 1250.06C158.177 1245.65 159.199 1241.27 160.434 1236.97C167.092 1208.56 183.176 1186.44 204.535 1171.64C208.812 1168.67 213.288 1166 217.989 1163.51C261.716 1137.93 314.496 1153.76 346.653 1190.06C350.505 1193.3 354.396 1196.5 358.336 1199.57C390.156 1236.44 446.452 1220.6 468.321 1179.64C471.127 1176.5 473.708 1172.96 476.214 1169.24C490.441 1137.93 539.704 1120.34 566.362 1147.93C569.455 1151.37 572.148 1155.2 574.454 1159.28C585.963 1179.74 587.559 1206.94 579.492 1228.66C578.419 1232.16 577.272 1235.65 576.088 1239.15C574.517 1243.82 572.883 1248.49 571.262 1253.2C557.285 1285.69 552.011 1326.16 578.395 1352.53C603.033 1377.17 641.735 1361.34 652.296 1331.43C659.328 1310.32 655.812 1287.45 651.074 1266.73C649.765 1261.86 648.269 1257.11 646.66 1252.54C645.052 1247.98 643.331 1243.62 641.548 1239.53C640.226 1235.45 638.942 1231.36 637.733 1227.26C632.571 1217.24 629.803 1206.43 629.316 1195.8C629.067 1190.49 629.404 1185.21 630.289 1180.11C633.157 1170.44 638.157 1162.1 644.628 1155.15C646.785 1152.83 649.117 1150.66 651.585 1148.64C675.164 1129.13 706.834 1125.61 734.988 1134.41C744.963 1137.93 752.581 1144.19 758.741 1151.97C761.82 1155.86 764.539 1160.13 766.945 1164.64C789.538 1211.8 798.329 1264.57 785.586 1315.5C784.563 1319.25 783.479 1322.98 782.344 1326.7C776.783 1344.07 769.501 1362.1 764.426 1380.41C763.155 1384.98 762.032 1389.58 761.097 1394.2C753.392 1421 751.471 1455.4 767.319 1478.35C769.962 1482.18 773.092 1485.68 776.783 1488.79C803.615 1512.61 849.363 1502.05 863.44 1470.39C879.275 1435.21 865.198 1400.03 855.734 1367.12C854.762 1364.05 853.739 1360.99 852.704 1357.92C847.48 1342.6 841.595 1327.31 837.468 1312.04C836.433 1308 835.535 1304.02 834.774 1300C826.508 1257.54 828.266 1213.56 840.473 1173.38C841.67 1170.18 843.029 1167.08 844.537 1164.08C849.088 1155.1 855.061 1147.05 862.093 1140.01C865.609 1136.48 869.387 1133.2 873.415 1130.15C910.958 1095.71 963.75 1102.74 1008.54 1084.87C1012.81 1083.2 1017.05 1081.47 1021.26 1079.66C1025.46 1077.86 1029.63 1075.97 1033.76 1074.02V187H-10Z" fill="#F2F2F2"/>
</svg>